<mxfile host="app.diagrams.net" agent="Mozilla/5.0 (Windows NT 10.0; Win64; x64) AppleWebKit/537.36 (KHTML, like Gecko) Chrome/138.0.0.0 Safari/537.36" version="28.1.0">
  <diagram name="Page-1" id="79PcZR3fXg1IaNj6N5b1">
    <mxGraphModel dx="1042" dy="1412" grid="1" gridSize="10" guides="1" tooltips="1" connect="1" arrows="1" fold="1" page="1" pageScale="1" pageWidth="1100" pageHeight="850" math="0" shadow="0">
      <root>
        <mxCell id="0" />
        <mxCell id="1" parent="0" />
        <mxCell id="Jx81JYnvYl7TlkvAPp9E-1" value="Client" style="shape=umlActor;verticalLabelPosition=bottom;verticalAlign=top;html=1;outlineConnect=0;" vertex="1" parent="1">
          <mxGeometry x="10" y="160" width="60" height="140" as="geometry" />
        </mxCell>
        <mxCell id="Jx81JYnvYl7TlkvAPp9E-2" value="&lt;font style=&quot;font-size: 18px;&quot;&gt;FastApi&lt;/font&gt;" style="rounded=0;whiteSpace=wrap;html=1;" vertex="1" parent="1">
          <mxGeometry x="140" y="40" width="150" height="480" as="geometry" />
        </mxCell>
        <mxCell id="Jx81JYnvYl7TlkvAPp9E-3" value="Sqlite DB" style="strokeWidth=2;html=1;shape=mxgraph.flowchart.database;whiteSpace=wrap;" vertex="1" parent="1">
          <mxGeometry x="470" y="230" width="130" height="200" as="geometry" />
        </mxCell>
        <mxCell id="Jx81JYnvYl7TlkvAPp9E-4" value="" style="shape=cylinder3;whiteSpace=wrap;html=1;boundedLbl=1;backgroundOutline=1;size=15;rotation=90;" vertex="1" parent="1">
          <mxGeometry x="465" y="-25" width="60" height="260" as="geometry" />
        </mxCell>
        <mxCell id="Jx81JYnvYl7TlkvAPp9E-6" value="" style="endArrow=classic;html=1;rounded=0;entryX=0.5;entryY=1;entryDx=0;entryDy=0;entryPerimeter=0;exitX=1;exitY=0.146;exitDx=0;exitDy=0;exitPerimeter=0;" edge="1" parent="1" source="Jx81JYnvYl7TlkvAPp9E-2" target="Jx81JYnvYl7TlkvAPp9E-4">
          <mxGeometry width="50" height="50" relative="1" as="geometry">
            <mxPoint x="310" y="160" as="sourcePoint" />
            <mxPoint x="360" y="110" as="targetPoint" />
          </mxGeometry>
        </mxCell>
        <mxCell id="Jx81JYnvYl7TlkvAPp9E-8" value="metadata" style="verticalLabelPosition=bottom;verticalAlign=top;html=1;shape=mxgraph.basic.patternFillRect;fillStyle=diagRev;step=5;fillStrokeWidth=0.2;fillStrokeColor=#dddddd;" vertex="1" parent="1">
          <mxGeometry x="530" y="85" width="60" height="45" as="geometry" />
        </mxCell>
        <mxCell id="Jx81JYnvYl7TlkvAPp9E-9" value="metadata" style="verticalLabelPosition=bottom;verticalAlign=top;html=1;shape=mxgraph.basic.patternFillRect;fillStyle=diagRev;step=5;fillStrokeWidth=0.2;fillStrokeColor=#dddddd;" vertex="1" parent="1">
          <mxGeometry x="465" y="85" width="60" height="45" as="geometry" />
        </mxCell>
        <mxCell id="Jx81JYnvYl7TlkvAPp9E-10" value="metadata" style="verticalLabelPosition=bottom;verticalAlign=top;html=1;shape=mxgraph.basic.patternFillRect;fillStyle=diagRev;step=5;fillStrokeWidth=0.2;fillStrokeColor=#dddddd;" vertex="1" parent="1">
          <mxGeometry x="400" y="85" width="60" height="45" as="geometry" />
        </mxCell>
        <mxCell id="Jx81JYnvYl7TlkvAPp9E-11" value="worker" style="rounded=1;whiteSpace=wrap;html=1;" vertex="1" parent="1">
          <mxGeometry x="680" y="140" width="120" height="60" as="geometry" />
        </mxCell>
        <mxCell id="Jx81JYnvYl7TlkvAPp9E-12" value="" style="endArrow=classic;html=1;rounded=0;exitX=0.5;exitY=0;exitDx=0;exitDy=0;exitPerimeter=0;entryX=0;entryY=0.5;entryDx=0;entryDy=0;" edge="1" parent="1" source="Jx81JYnvYl7TlkvAPp9E-4" target="Jx81JYnvYl7TlkvAPp9E-11">
          <mxGeometry width="50" height="50" relative="1" as="geometry">
            <mxPoint x="630" y="150" as="sourcePoint" />
            <mxPoint x="680" y="100" as="targetPoint" />
          </mxGeometry>
        </mxCell>
        <mxCell id="Jx81JYnvYl7TlkvAPp9E-13" value="&lt;div&gt;External API&lt;/div&gt;&lt;font style=&quot;font-size: 9px;&quot;&gt;API Ninja&lt;/font&gt;" style="ellipse;shape=cloud;whiteSpace=wrap;html=1;" vertex="1" parent="1">
          <mxGeometry x="720" y="-20" width="120" height="80" as="geometry" />
        </mxCell>
        <mxCell id="Jx81JYnvYl7TlkvAPp9E-14" value="" style="endArrow=classic;startArrow=classic;html=1;rounded=0;exitX=0.5;exitY=0;exitDx=0;exitDy=0;" edge="1" parent="1" source="Jx81JYnvYl7TlkvAPp9E-11">
          <mxGeometry width="50" height="50" relative="1" as="geometry">
            <mxPoint x="730" y="110" as="sourcePoint" />
            <mxPoint x="780" y="60" as="targetPoint" />
          </mxGeometry>
        </mxCell>
        <mxCell id="Jx81JYnvYl7TlkvAPp9E-16" value="" style="endArrow=classic;html=1;rounded=0;exitX=0.5;exitY=1;exitDx=0;exitDy=0;entryX=1;entryY=0.5;entryDx=0;entryDy=0;entryPerimeter=0;" edge="1" parent="1" source="Jx81JYnvYl7TlkvAPp9E-11" target="Jx81JYnvYl7TlkvAPp9E-3">
          <mxGeometry width="50" height="50" relative="1" as="geometry">
            <mxPoint x="400" y="310" as="sourcePoint" />
            <mxPoint x="450" y="260" as="targetPoint" />
          </mxGeometry>
        </mxCell>
        <mxCell id="Jx81JYnvYl7TlkvAPp9E-17" value="RabbitMq Queue" style="text;html=1;align=center;verticalAlign=middle;resizable=0;points=[];autosize=1;strokeColor=none;fillColor=none;" vertex="1" parent="1">
          <mxGeometry x="445" y="38" width="110" height="30" as="geometry" />
        </mxCell>
        <mxCell id="Jx81JYnvYl7TlkvAPp9E-18" value="" style="endArrow=classic;startArrow=classic;html=1;rounded=0;exitX=0.5;exitY=0.5;exitDx=0;exitDy=0;exitPerimeter=0;" edge="1" parent="1" source="Jx81JYnvYl7TlkvAPp9E-1">
          <mxGeometry width="50" height="50" relative="1" as="geometry">
            <mxPoint x="90" y="260" as="sourcePoint" />
            <mxPoint x="140" y="210" as="targetPoint" />
          </mxGeometry>
        </mxCell>
        <mxCell id="Jx81JYnvYl7TlkvAPp9E-19" value="" style="endArrow=classic;startArrow=classic;html=1;rounded=0;entryX=0;entryY=0.5;entryDx=0;entryDy=0;entryPerimeter=0;" edge="1" parent="1" target="Jx81JYnvYl7TlkvAPp9E-3">
          <mxGeometry width="50" height="50" relative="1" as="geometry">
            <mxPoint x="290" y="370" as="sourcePoint" />
            <mxPoint x="340" y="320" as="targetPoint" />
          </mxGeometry>
        </mxCell>
        <mxCell id="Jx81JYnvYl7TlkvAPp9E-23" value="&lt;h1 style=&quot;margin-top: 0px;&quot;&gt;Backend Processing Pipeline&lt;/h1&gt;&lt;p&gt;The client uploads an image to the API, which stores metadata, queues the job, processes it via a worker and external API, saves the result, and lets the client check status or retrieve the text.&lt;/p&gt;" style="text;html=1;whiteSpace=wrap;overflow=hidden;rounded=0;" vertex="1" parent="1">
          <mxGeometry x="630" y="300" width="250" height="210" as="geometry" />
        </mxCell>
      </root>
    </mxGraphModel>
  </diagram>
</mxfile>
